<svg width="24.000000" height="24.000000" viewBox="0 0 24 24" fill="none" xmlns="http://www.w3.org/2000/svg" xmlns:xlink="http://www.w3.org/1999/xlink">
	<desc>
			Created with Pixso.
	</desc>
	<defs>
		<clipPath id="clip29_1905">
			<rect id="Frame" width="24.000000" height="24.000000" fill="white" fill-opacity="0"/>
		</clipPath>
	</defs>
	<rect id="Frame" width="24.000000" height="24.000000" fill="#FFFFFF" fill-opacity="0"/>
	<g clip-path="url(#clip29_1905)">
		<path id="Vector" d="M4.58 5.58C4.96 5.21 5.46 5 6 5L18 5C18.53 5 19.03 5.21 19.41 5.58C19.78 5.96 20 6.46 20 7L20 19C20 19.53 19.78 20.03 19.41 20.41C19.03 20.78 18.53 21 18 21L6 21C5.46 21 4.96 20.78 4.58 20.41C4.21 20.03 4 19.53 4 19L4 7C4 6.46 4.21 5.96 4.58 5.58Z" stroke="#12132D" stroke-opacity="0.600000" stroke-width="1.500000" stroke-linejoin="round"/>
		<path id="Vector" d="M16 3L16 7" stroke="#12132D" stroke-opacity="0.600000" stroke-width="1.500000" stroke-linejoin="round" stroke-linecap="round"/>
		<path id="Vector" d="M8 3L8 7" stroke="#12132D" stroke-opacity="0.600000" stroke-width="1.500000" stroke-linejoin="round" stroke-linecap="round"/>
		<path id="Vector" d="M4 11L20 11" stroke="#12132D" stroke-opacity="0.600000" stroke-width="1.500000" stroke-linejoin="round" stroke-linecap="round"/>
		<path id="Vector" d="M11.29 16.7C11.48 16.89 11.73 17 12 17C12.26 17 12.51 16.89 12.7 16.7C12.89 16.51 13 16.26 13 16C13 15.73 12.89 15.48 12.7 15.29C12.51 15.1 12.26 15 12 15C11.73 15 11.48 15.1 11.29 15.29C11.1 15.48 11 15.73 11 16C11 16.26 11.1 16.51 11.29 16.7Z" stroke="#12132D" stroke-opacity="0.600000" stroke-width="1.500000" stroke-linejoin="round"/>
	</g>
</svg>
