<svg width="23.000000" height="23.000000" viewBox="0 0 23 23" fill="none" xmlns="http://www.w3.org/2000/svg" xmlns:xlink="http://www.w3.org/1999/xlink">
	<desc>
			Created with Pixso.
	</desc>
	<defs/>
	<path id="Vector" d="M10.78 0C4.39 0 -0.75 5.11 -0.75 11.47C-0.75 16.54 2.57 20.85 7.13 22.38C7.71 22.47 7.9 22.14 7.9 21.8C7.9 21.52 7.9 20.8 7.9 19.84C4.68 20.56 4.01 18.31 4.01 18.31C3.48 16.97 2.71 16.64 2.71 16.64C1.65 15.92 2.81 15.92 2.81 15.92C3.96 16.02 4.58 17.12 4.58 17.12C5.59 18.89 7.28 18.36 7.95 18.07C8.04 17.31 8.33 16.83 8.67 16.54C6.12 16.26 3.43 15.25 3.43 10.85C3.43 9.61 3.86 8.56 4.63 7.79C4.54 7.5 4.1 6.36 4.73 4.73C4.73 4.73 5.69 4.44 7.9 5.93C8.81 5.69 9.82 5.54 10.78 5.54C11.74 5.54 12.75 5.69 13.67 5.93C15.88 4.44 16.84 4.73 16.84 4.73C17.46 6.31 17.08 7.46 16.93 7.79C17.66 8.6 18.14 9.61 18.14 10.85C18.14 15.25 15.44 16.21 12.85 16.49C13.28 16.83 13.62 17.55 13.62 18.6C13.62 20.13 13.62 21.37 13.62 21.76C13.62 22.04 13.81 22.43 14.44 22.33C19 20.85 22.32 16.54 22.32 11.47C22.32 5.11 17.17 0 10.78 0Z" fill="#12132D" fill-opacity="1.000000" fill-rule="evenodd"/>
</svg>
