<svg width="24.000000" height="24.000000" viewBox="0 0 24 24" fill="none" xmlns="http://www.w3.org/2000/svg" xmlns:xlink="http://www.w3.org/1999/xlink">
	<desc>
			Created with Pixso.
	</desc>
	<defs>
		<clipPath id="clip5_543">
			<rect id="Frame" width="24.000000" height="24.000000" fill="white" fill-opacity="0"/>
		</clipPath>
	</defs>
	<rect id="Frame" width="24.000000" height="24.000000" fill="#FFFFFF" fill-opacity="0"/>
	<g clip-path="url(#clip5_543)">
		<path id="Vector" d="M2.25 12L11.2 3.04C11.64 2.6 12.35 2.6 12.79 3.04L21.75 12M4.5 9.75L4.5 19.87C4.5 20.49 5 21 5.62 21L9.75 21L9.75 16.12C9.75 15.5 10.25 15 10.87 15L13.12 15C13.74 15 14.25 15.5 14.25 16.12L14.25 21L18.37 21C18.99 21 19.5 20.49 19.5 19.87L19.5 9.75M8.25 21L16.5 21" stroke="#12132D" stroke-opacity="0.600000" stroke-width="1.500000" stroke-linejoin="round"/>
	</g>
</svg>
