<svg width="24.000000" height="24.000000" viewBox="0 0 24 24" fill="none" xmlns="http://www.w3.org/2000/svg" xmlns:xlink="http://www.w3.org/1999/xlink">
	<desc>
			Created with Pixso.
	</desc>
	<defs/>
	<path id="Vector" d="M11.19 2.16C14.41 2.16 14.79 2.17 16.07 2.23C16.83 2.24 17.59 2.38 18.3 2.64C18.82 2.84 19.3 3.15 19.69 3.54C20.09 3.93 20.39 4.4 20.59 4.92C20.86 5.63 21 6.39 21.01 7.15C21.07 8.41 21.08 8.79 21.08 12C21.08 15.2 21.07 15.58 21.01 16.84C21 17.6 20.86 18.36 20.59 19.07C20.39 19.59 20.09 20.06 19.69 20.45C19.3 20.84 18.82 21.15 18.3 21.35C17.59 21.61 16.83 21.75 16.07 21.76C14.79 21.82 14.41 21.83 11.19 21.83C7.97 21.83 7.59 21.82 6.32 21.76C5.56 21.75 4.8 21.61 4.08 21.35C3.56 21.15 3.09 20.84 2.7 20.45C2.3 20.06 1.99 19.59 1.79 19.07C1.53 18.36 1.39 17.6 1.38 16.84C1.32 15.58 1.31 15.2 1.31 12C1.31 8.79 1.32 8.41 1.38 7.15C1.39 6.39 1.53 5.63 1.79 4.92C1.99 4.4 2.3 3.93 2.7 3.54C3.09 3.15 3.56 2.84 4.08 2.64C4.8 2.38 5.56 2.24 6.32 2.23C7.59 2.17 7.97 2.16 11.19 2.16ZM11.19 0C7.92 0 7.51 0.01 6.22 0.07C5.22 0.09 4.23 0.28 3.29 0.62C2.49 0.93 1.76 1.4 1.16 2.01C0.55 2.61 0.07 3.33 -0.23 4.13C-0.58 5.07 -0.77 6.05 -0.79 7.05C-0.85 8.33 -0.86 8.74 -0.86 11.99C-0.86 15.25 -0.85 15.66 -0.79 16.94C-0.77 17.94 -0.58 18.92 -0.23 19.86C0.07 20.66 0.55 21.38 1.16 21.98C1.76 22.59 2.49 23.06 3.3 23.37C4.23 23.71 5.22 23.9 6.22 23.92C7.51 23.98 7.92 24 11.19 24C14.47 24 14.88 23.98 16.17 23.92C17.17 23.9 18.16 23.71 19.09 23.37C19.89 23.06 20.62 22.58 21.23 21.98C21.84 21.38 22.31 20.65 22.62 19.85C22.97 18.92 23.16 17.94 23.18 16.94C23.24 15.66 23.25 15.25 23.25 11.99C23.25 8.74 23.24 8.33 23.18 7.05C23.16 6.05 22.97 5.07 22.62 4.13C22.31 3.33 21.84 2.61 21.23 2.01C20.62 1.4 19.9 0.92 19.09 0.62C18.15 0.27 17.16 0.09 16.16 0.07C14.88 0.01 14.47 0 11.19 0Z" fill="#12132D" fill-opacity="1.000000" fill-rule="nonzero"/>
	<path id="Vector" d="M11.19 5.83C9.97 5.83 8.77 6.19 7.75 6.87C6.73 7.55 5.94 8.51 5.47 9.64C5 10.76 4.88 12 5.12 13.2C5.36 14.39 5.95 15.49 6.81 16.35C7.68 17.21 8.78 17.8 9.98 18.04C11.18 18.28 12.43 18.15 13.56 17.69C14.69 17.22 15.66 16.43 16.34 15.42C17.02 14.4 17.38 13.21 17.38 11.99C17.38 10.36 16.73 8.79 15.57 7.64C14.41 6.48 12.83 5.83 11.19 5.83ZM11.19 15.99C10.4 15.99 9.62 15.76 8.96 15.32C8.3 14.88 7.78 14.26 7.48 13.53C7.17 12.79 7.09 11.99 7.25 11.21C7.4 10.44 7.79 9.73 8.35 9.17C8.91 8.61 9.63 8.23 10.41 8.07C11.19 7.92 11.99 8 12.73 8.3C13.46 8.6 14.09 9.12 14.53 9.77C14.97 10.43 15.21 11.2 15.21 11.99C15.21 13.06 14.79 14.07 14.03 14.82C13.28 15.57 12.26 15.99 11.19 15.99Z" fill="#12132D" fill-opacity="1.000000" fill-rule="nonzero"/>
	<path id="Vector" d="M19.07 5.59C19.07 6.38 18.43 7.03 17.63 7.03C16.83 7.03 16.18 6.38 16.18 5.59C16.18 4.79 16.83 4.15 17.63 4.15C18.43 4.15 19.07 4.79 19.07 5.59Z" fill="#12132D" fill-opacity="1.000000" fill-rule="evenodd"/>
</svg>
