<svg width="28.000000" height="28.000000" viewBox="0 0 28 28" fill="none" xmlns="http://www.w3.org/2000/svg" xmlns:xlink="http://www.w3.org/1999/xlink">
	<desc>
			Created with Pixso.
	</desc>
	<defs>
		<clipPath id="clip57_457">
			<rect id="email 1" width="28.000000" height="28.000000" fill="white" fill-opacity="0"/>
		</clipPath>
	</defs>
	<rect id="email 1" width="28.000000" height="28.000000" fill="#FFFFFF" fill-opacity="0"/>
	<g clip-path="url(#clip57_457)">
		<path id="Vector" d="M13.99 0C6.26 0 0 6.26 0 13.99C0 21.73 6.26 28 13.99 28C21.73 28 27.99 21.73 27.99 13.99C27.99 6.26 21.73 0 13.99 0ZM14 4.91L22.28 10.08L5.71 10.08L14 4.91ZM22.38 18.33L22.38 18.33C22.38 19.16 21.71 19.83 20.88 19.83L7.11 19.83C6.28 19.83 5.61 19.16 5.61 18.33L5.61 10.41C5.61 10.32 5.62 10.23 5.63 10.15L13.55 15.09C13.56 15.09 13.57 15.1 13.58 15.1C13.59 15.11 13.6 15.11 13.61 15.12C13.66 15.15 13.72 15.17 13.78 15.19C13.79 15.19 13.79 15.19 13.8 15.19C13.86 15.21 13.93 15.21 13.99 15.21L14 15.21C14 15.21 14 15.21 14 15.21C14.06 15.21 14.13 15.21 14.19 15.19C14.2 15.19 14.2 15.19 14.21 15.19C14.27 15.17 14.33 15.15 14.38 15.12C14.39 15.11 14.4 15.11 14.41 15.1C14.42 15.1 14.43 15.09 14.44 15.09L22.36 10.15C22.37 10.23 22.38 10.32 22.38 10.41L22.38 18.33Z" fill="#10B981" fill-opacity="1.000000" fill-rule="nonzero"/>
	</g>
</svg>
