<svg width="28.000000" height="28.000000" viewBox="0 0 28 28" fill="none" xmlns="http://www.w3.org/2000/svg" xmlns:xlink="http://www.w3.org/1999/xlink">
	<desc>
			Created with Pixso.
	</desc>
	<defs>
		<clipPath id="clip57_454">
			<rect id="tabler-icon-clock-hour-9" width="28.000000" height="28.000000" fill="white" fill-opacity="0"/>
		</clipPath>
	</defs>
	<rect id="tabler-icon-clock-hour-9" width="28.000000" height="28.000000" fill="#FFFFFF" fill-opacity="0"/>
	<g clip-path="url(#clip57_454)">
		<path id="Vector" d="M4.29 18.01C4.82 19.29 5.6 20.44 6.57 21.42C7.55 22.39 8.7 23.17 9.98 23.7C11.25 24.22 12.62 24.5 14 24.5C15.37 24.5 16.74 24.22 18.01 23.7C19.29 23.17 20.44 22.39 21.42 21.42C22.39 20.44 23.17 19.29 23.7 18.01C24.22 16.74 24.5 15.37 24.5 14C24.5 12.62 24.22 11.25 23.7 9.98C23.17 8.7 22.39 7.55 21.42 6.57C20.44 5.6 19.29 4.82 18.01 4.29C16.74 3.77 15.37 3.5 14 3.5C12.62 3.5 11.25 3.77 9.98 4.29C8.7 4.82 7.55 5.6 6.57 6.57C5.6 7.55 4.82 8.7 4.29 9.98C3.77 11.25 3.5 12.62 3.5 14C3.5 15.37 3.77 16.74 4.29 18.01ZM14 8.16L14 14L9.91 14" stroke="#12132D" stroke-opacity="0.600000" stroke-width="1.500000" stroke-linejoin="round" stroke-linecap="round"/>
	</g>
</svg>
