<svg width="20.000000" height="16.000000" viewBox="0 0 20 16" fill="none" xmlns="http://www.w3.org/2000/svg" xmlns:xlink="http://www.w3.org/1999/xlink">
	<desc>
			Created with Pixso.
	</desc>
	<defs/>
	<path id="Vector" d="M19.88 1.65C19.14 1.98 18.35 2.19 17.52 2.31C18.35 1.82 19.01 1.03 19.3 0.08C18.52 0.54 17.65 0.87 16.69 1.07C15.95 0.29 14.87 -0.21 13.71 -0.21C11.47 -0.21 9.65 1.61 9.65 3.84C9.65 4.17 9.69 4.45 9.77 4.74C6.42 4.58 3.39 2.97 1.36 0.5C1.03 1.11 0.82 1.77 0.82 2.52C0.82 3.92 1.53 5.16 2.65 5.9C1.98 5.86 1.36 5.69 0.78 5.4L0.78 5.44C0.78 7.42 2.19 9.07 4.06 9.44C3.72 9.53 3.35 9.57 2.98 9.57C2.73 9.57 2.44 9.53 2.19 9.49C2.73 11.09 4.22 12.29 6 12.29C4.59 13.36 2.85 14.02 0.95 14.02C0.62 14.02 0.29 14.02 0 13.98C1.82 15.13 3.93 15.79 6.25 15.79C13.75 15.79 17.85 9.61 17.85 4.25C17.85 4.08 17.85 3.88 17.85 3.71C18.64 3.18 19.34 2.48 19.88 1.65Z" fill="#12132D" fill-opacity="1.000000" fill-rule="nonzero"/>
</svg>
