<svg width="28.000000" height="28.000000" viewBox="0 0 28 28" fill="none" xmlns="http://www.w3.org/2000/svg" xmlns:xlink="http://www.w3.org/1999/xlink">
	<desc>
			Created with Pixso.
	</desc>
	<defs>
		<clipPath id="clip57_450">
			<rect id="tabler-icon-eye" width="28.000000" height="28.000000" fill="white" fill-opacity="0"/>
		</clipPath>
	</defs>
	<rect id="tabler-icon-eye" width="28.000000" height="28.000000" fill="#FFFFFF" fill-opacity="0"/>
	<g clip-path="url(#clip57_450)">
		<path id="Vector" d="M12.35 15.64C12.78 16.08 13.38 16.33 14 16.33C14.61 16.33 15.21 16.08 15.64 15.64C16.08 15.21 16.33 14.61 16.33 14C16.33 13.38 16.08 12.78 15.64 12.35C15.21 11.91 14.61 11.66 14 11.66C13.38 11.66 12.78 11.91 12.35 12.35C11.91 12.78 11.66 13.38 11.66 14C11.66 14.61 11.91 15.21 12.35 15.64ZM14 21C9.8 21 6.3 18.66 3.5 14C6.3 9.33 9.8 7 14 7C18.2 7 21.7 9.33 24.5 14C21.7 18.66 18.2 21 14 21Z" stroke="#12132D" stroke-opacity="0.600000" stroke-width="1.500000" stroke-linejoin="round"/>
	</g>
</svg>
